<svg width="18" height="18" viewBox="0 0 18 18" fill="none" xmlns="http://www.w3.org/2000/svg">
<path d="M10.3458 12.4143C10.4124 12.3799 10.4695 12.3348 10.5176 12.2831C13.0936 11.5819 15 9.13973 15 6.24277C15 4.29109 13.7574 0.583738 13.7044 0.42685C13.6185 0.171949 13.3771 0 13.1053 0H4.89474C4.62288 0 4.38154 0.171949 4.29557 0.42685C4.24263 0.583738 3 4.29109 3 6.24277C3 9.13973 4.90642 11.5819 7.4824 12.283C7.53047 12.3348 7.58763 12.3798 7.65422 12.4143C8.09475 12.6424 8.36842 13.0895 8.36842 13.5812V15.5029C8.36842 16.1914 7.80178 16.7514 7.10526 16.7514H5.84211C5.49328 16.7514 5.21053 17.031 5.21053 17.3757C5.21053 17.7205 5.49328 18 5.84211 18H12.1579C12.5067 18 12.7895 17.7205 12.7895 17.3757C12.7895 17.031 12.5067 16.7514 12.1579 16.7514H10.8947C10.1982 16.7514 9.63158 16.1914 9.63158 15.5029V13.5812C9.63158 13.0895 9.90525 12.6424 10.3458 12.4143ZM4.26316 6.24277C4.26316 4.85103 5.03428 2.26593 5.35583 1.24855H12.6443C12.9658 2.26566 13.7368 4.8497 13.7368 6.24277C13.7368 8.99662 11.6119 11.237 9 11.237C6.38811 11.237 4.26316 8.99662 4.26316 6.24277Z" fill="white"/>
<path d="M12.5 6.5C12.5 5.84156 12.2341 4.55203 11.7813 3H6.5C6 4.5 5.5 5.84047 5.5 6.5C5.5 8.42974 7.45807 10 9.25 10C11.0419 10 12.5 8.42974 12.5 6.5Z" fill="white"/>
</svg>
