<svg width="32" height="32" viewBox="0 0 32 32" fill="none" xmlns="http://www.w3.org/2000/svg">
<g opacity="0.8">
<path d="M16.026 4.25854C11.7506 4.25854 8.27601 7.73313 8.27601 12.0085V15.7415C8.27601 16.5294 7.94017 17.7306 7.53976 18.4023L6.05434 20.8694C5.13726 22.3935 5.77017 24.0856 7.44934 24.654C13.0164 26.514 19.0227 26.514 24.5898 24.654C26.1527 24.1373 26.8373 22.2902 25.9848 20.8694L24.4993 18.4023C24.1118 17.7306 23.776 16.5294 23.776 15.7415V12.0085C23.776 7.74605 20.2885 4.25854 16.026 4.25854Z" stroke="#252525" stroke-width="1.9375" stroke-miterlimit="10" stroke-linecap="round"/>
<path d="M18.4154 4.63336C18.015 4.51711 17.6016 4.42669 17.1754 4.37503C15.9354 4.22003 14.7471 4.31044 13.6362 4.63336C14.0108 3.67753 14.9408 3.00586 16.0258 3.00586C17.1108 3.00586 18.0408 3.67753 18.4154 4.63336Z" stroke="#252525" stroke-width="1.9375" stroke-miterlimit="10" stroke-linecap="round" stroke-linejoin="round"/>
<path d="M19.9009 25.1191C19.9009 27.2504 18.1571 28.9941 16.0259 28.9941C14.9667 28.9941 13.985 28.555 13.2875 27.8575C12.59 27.16 12.1509 26.1783 12.1509 25.1191" stroke="#252525" stroke-width="1.9375" stroke-miterlimit="10"/>
</g>
</svg>
