<svg width="24" height="24" viewBox="0 0 24 24" fill="none" xmlns="http://www.w3.org/2000/svg">
<path d="M15.2487 5.493L16.5999 8.19549C16.782 8.56924 17.2708 8.92382 17.6829 9.00049L20.1266 9.40299C21.6887 9.66174 22.0529 10.7926 20.9316 11.9234L19.0245 13.8305C18.7083 14.1467 18.5262 14.7697 18.6316 15.2201L19.1779 17.5776C19.6091 19.4367 18.6125 20.1651 16.9737 19.1876L14.6833 17.8267C14.2712 17.5776 13.5812 17.5776 13.1691 17.8267L10.8787 19.1876C9.23994 20.1555 8.24328 19.4367 8.67453 17.5776L9.22079 15.2201C9.32621 14.7792 9.14412 14.1563 8.82787 13.8305L6.9208 11.9234C5.79955 10.8022 6.16371 9.67132 7.72579 9.40299L10.1695 9.00049C10.5816 8.9334 11.0704 8.56924 11.2525 8.19549L12.6037 5.493C13.3225 4.02675 14.5108 4.02675 15.2487 5.493Z" stroke="#51111D" stroke-width="1.4375" stroke-linecap="round" stroke-linejoin="round"/>
<path d="M8.16663 5.29175H2.41663" stroke="#51111D" stroke-width="1.4375" stroke-linecap="round" stroke-linejoin="round"/>
<path d="M5.29163 18.7084H2.41663" stroke="#51111D" stroke-width="1.4375" stroke-linecap="round" stroke-linejoin="round"/>
<path d="M3.37496 12H2.41663" stroke="#51111D" stroke-width="1.4375" stroke-linecap="round" stroke-linejoin="round"/>
</svg>
