<svg width="48" height="48" viewBox="0 0 48 48" fill="none" xmlns="http://www.w3.org/2000/svg">
<rect width="48" height="48" rx="24" fill="#F4BC11"/>
<path d="M18.25 14.8962H29.75C31.0804 14.8962 32.1455 15.9606 32.1455 17.2634V27.7185C32.1455 29.0213 31.0804 30.0857 29.75 30.0857H29.0312C28.1517 30.0857 27.2919 30.4298 26.6631 31.0574L25.0244 32.6765C24.4635 33.2302 23.5462 33.2302 22.9854 32.6765H22.9844L21.3467 31.0574C20.7185 30.4304 19.8685 30.0857 18.9785 30.0857H18.25C16.9196 30.0857 15.8545 29.0213 15.8545 27.7185V17.2634C15.8545 15.9606 16.9196 14.8962 18.25 14.8962ZM25.0156 17.739C24.6892 17.6171 24.3519 17.6434 24.0742 17.741C23.8298 17.827 23.5973 17.98 23.4336 18.1863L23.3672 18.2781L22.1621 20.0662C22.1186 20.0009 22.0696 19.9378 22.0098 19.8806C21.7164 19.6004 21.3142 19.5251 20.9141 19.5251H20.4443C20.0442 19.5252 19.6429 19.6005 19.3496 19.8806C19.0509 20.166 18.9688 20.5625 18.9688 20.9529V25.5242C18.9688 25.9145 19.0509 26.3111 19.3496 26.5964C19.6429 26.8764 20.0443 26.9519 20.4443 26.9519H20.9043C21.2898 26.9519 21.6738 26.8814 21.9619 26.6238C22.0355 26.558 22.0958 26.4852 22.1465 26.408L22.9951 27.072C23.1701 27.2314 23.3973 27.3267 23.5859 27.3826C23.7977 27.4452 24.0286 27.4792 24.2305 27.4792H26.0029C26.8136 27.4792 27.6051 26.8958 27.8184 26.1228L27.8193 26.1238L28.9395 22.7117C29.0923 22.2704 29.0659 21.7925 28.793 21.3982L28.791 21.3953L28.6748 21.2527C28.3864 20.9413 27.9759 20.7898 27.5459 20.7898H25.7578L25.9785 19.3582L25.9766 19.3572C26.1069 18.6825 25.6858 17.9793 25.0381 17.7468H25.0391C25.0334 17.7446 25.0271 17.7431 25.0215 17.741C25.0199 17.7404 25.0182 17.7395 25.0166 17.739H25.0156Z" fill="white" stroke="white" stroke-width="0.958333"/>
</svg>
