<svg width="48" height="48" viewBox="0 0 48 48" fill="none" xmlns="http://www.w3.org/2000/svg">
<rect width="48" height="48" rx="24" fill="#34A8DA"/>
<path d="M23.9999 24.0001C26.6463 24.0001 28.7916 21.8548 28.7916 19.2084C28.7916 16.5621 26.6463 14.4167 23.9999 14.4167C21.3536 14.4167 19.2083 16.5621 19.2083 19.2084C19.2083 21.8548 21.3536 24.0001 23.9999 24.0001Z" fill="white" stroke="white" stroke-width="1.4375" stroke-linecap="round" stroke-linejoin="round"/>
<path d="M15.7678 33.5833C15.7678 29.8746 19.4574 26.875 23.9999 26.875" stroke="white" stroke-width="1.4375" stroke-linecap="round" stroke-linejoin="round"/>
<path d="M29.9417 33.0084C31.6354 33.0084 33.0084 31.6354 33.0084 29.9417C33.0084 28.248 31.6354 26.875 29.9417 26.875C28.248 26.875 26.875 28.248 26.875 29.9417C26.875 31.6354 28.248 33.0084 29.9417 33.0084Z" fill="white" stroke="white" stroke-width="1.4375" stroke-linecap="round" stroke-linejoin="round"/>
<path d="M33.5833 33.5833L32.625 32.625" stroke="white" stroke-width="1.4375" stroke-linecap="round" stroke-linejoin="round"/>
</svg>
