<svg width="24" height="23" viewBox="0 0 24 23" fill="none" xmlns="http://www.w3.org/2000/svg">
<g clip-path="url(#clip0_532_10739)">
<path d="M16.0192 0.142212C16.0722 0.142212 16.1252 0.142212 16.1812 0.142212C16.3112 1.74821 15.6982 2.94821 14.9532 3.81721C14.2222 4.68021 13.2212 5.51721 11.6022 5.39021C11.4942 3.80721 12.1082 2.69621 12.8522 1.82921C13.5422 1.02121 14.8072 0.302212 16.0192 0.142212Z" fill="white"/>
<path d="M20.9195 16.8579C20.9195 16.8739 20.9195 16.8879 20.9195 16.9029C20.4645 18.2809 19.8155 19.4619 19.0235 20.5579C18.3005 21.5529 17.4145 22.8919 15.8325 22.8919C14.4655 22.8919 13.5575 22.0129 12.1565 21.9889C10.6745 21.9649 9.85952 22.7239 8.50452 22.9149C8.34952 22.9149 8.19452 22.9149 8.04252 22.9149C7.04752 22.7709 6.24452 21.9829 5.65952 21.2729C3.93452 19.1749 2.60152 16.4649 2.35352 12.9969C2.35352 12.6569 2.35352 12.3179 2.35352 11.9779C2.45852 9.49593 3.66452 7.47793 5.26752 6.49993C6.11352 5.97993 7.27652 5.53693 8.57152 5.73493C9.12651 5.82093 9.69352 6.01093 10.1905 6.19893C10.6615 6.37993 11.2505 6.70092 11.8085 6.68393C12.1865 6.67292 12.5625 6.47593 12.9435 6.33693C14.0595 5.93393 15.1535 5.47193 16.5955 5.68893C18.3285 5.95093 19.5585 6.72093 20.3185 7.90893C18.8525 8.84193 17.6935 10.2479 17.8915 12.6489C18.0675 14.8299 19.3355 16.1059 20.9195 16.8579Z" fill="white"/>
</g>
<defs>
<clipPath id="clip0_532_10739">
<rect width="22.773" height="22.773" fill="white" transform="translate(0.25 0.142212)"/>
</clipPath>
</defs>
</svg>
