<svg width="48" height="48" viewBox="0 0 48 48" fill="none" xmlns="http://www.w3.org/2000/svg">
<rect width="48" height="48" rx="24" fill="#6FC276"/>
<path d="M32.1458 22.2655H29.3762C27.1049 22.2655 25.2553 20.4159 25.2553 18.1447V15.3751C25.2553 14.848 24.8241 14.4167 24.297 14.4167H20.2337C17.282 14.4167 14.8958 16.3334 14.8958 19.7547V28.2455C14.8958 31.6667 17.282 33.5834 20.2337 33.5834H27.7662C30.7178 33.5834 33.1041 31.6667 33.1041 28.2455V23.2238C33.1041 22.6967 32.6728 22.2655 32.1458 22.2655ZM24.2683 27.6226L22.3516 29.5392C22.2845 29.6063 22.1983 29.6638 22.112 29.6926C22.0258 29.7309 21.9395 29.7501 21.8437 29.7501C21.7478 29.7501 21.6616 29.7309 21.5753 29.6926C21.4987 29.6638 21.422 29.6063 21.3645 29.5488C21.3549 29.5392 21.3453 29.5392 21.3453 29.5297L19.4287 27.613C19.1508 27.3351 19.1508 26.8751 19.4287 26.5972C19.7066 26.3192 20.1666 26.3192 20.4445 26.5972L21.1249 27.2967V23.2813C21.1249 22.8884 21.4508 22.5626 21.8437 22.5626C22.2366 22.5626 22.5624 22.8884 22.5624 23.2813V27.2967L23.2524 26.6067C23.5303 26.3288 23.9903 26.3288 24.2683 26.6067C24.5462 26.8847 24.5462 27.3447 24.2683 27.6226Z" fill="white"/>
<path d="M29.2038 20.9429C30.1142 20.9525 31.3792 20.9525 32.4621 20.9525C33.0084 20.9525 33.2959 20.3104 32.9125 19.9271C31.5325 18.5375 29.06 16.0362 27.6417 14.6179C27.2488 14.225 26.5684 14.4933 26.5684 15.0396V18.3841C26.5684 19.7833 27.7567 20.9429 29.2038 20.9429Z" fill="white"/>
</svg>
