<svg width="48" height="48" viewBox="0 0 48 48" fill="none" xmlns="http://www.w3.org/2000/svg">
<rect width="48" height="48" rx="24" fill="#B2642A"/>
<path d="M23.1069 15.1985C23.6013 14.7878 24.4174 14.7932 24.896 15.2024L26.4087 16.5051C26.6091 16.6784 26.8736 16.8155 27.1265 16.9094C27.3797 17.0035 27.668 17.0715 27.9292 17.0715H29.5581C30.3093 17.0715 30.9282 17.6905 30.9282 18.4417V20.0706C30.9282 20.336 30.9956 20.6246 31.0903 20.8782C31.1848 21.1309 31.3227 21.391 31.4946 21.5901V21.5911L32.7974 23.1028V23.1038C33.2084 23.5845 33.2102 24.4113 32.8081 24.8948L31.5054 26.4075C31.3316 26.608 31.1943 26.8728 31.1001 27.1262C31.006 27.3795 30.938 27.6677 30.938 27.929V29.5588C30.9377 30.3098 30.3189 30.9289 29.5679 30.929H27.939C27.6735 30.929 27.3849 30.9963 27.1313 31.0911C26.8782 31.1856 26.6176 31.3231 26.4185 31.4954L24.9077 32.7952C24.4448 33.1851 23.6954 33.2069 23.2075 32.8694L23.1138 32.7971L21.6011 31.4963H21.6021C21.4015 31.3225 21.1367 31.1842 20.8833 31.0901C20.6301 30.996 20.3418 30.929 20.0806 30.929H18.4224C17.6714 30.9289 17.0525 30.3098 17.0522 29.5588V27.9192C17.0522 27.6578 16.9845 27.3721 16.8921 27.1223C16.7993 26.8718 16.6651 26.6129 16.5005 26.4153L16.4976 26.4114L15.2036 24.8879H15.2026C14.799 24.4053 14.7988 23.5941 15.2026 23.1116L15.2036 23.1125L16.4976 21.5881L16.5005 21.5852C16.6652 21.3875 16.7993 21.1288 16.8921 20.8782C16.9846 20.6281 17.0522 20.3419 17.0522 20.0803V18.4417C17.0523 17.6905 17.6712 17.0716 18.4224 17.0715H20.0806C20.3416 17.0715 20.6295 17.0036 20.8813 16.9114C21.1333 16.8191 21.3953 16.6854 21.5942 16.5198L21.603 16.512L23.1069 15.1985ZM28.3257 20.8342C27.8607 20.3692 27.0974 20.3693 26.6323 20.8342L22.8501 24.6165L21.3774 23.1438C20.9124 22.6788 20.1491 22.6788 19.6841 23.1438C19.2191 23.6088 19.219 24.3721 19.6841 24.8372L22.0034 27.1565C22.2264 27.3794 22.53 27.5071 22.8501 27.5071C23.1702 27.507 23.4738 27.3794 23.6968 27.1565L28.3257 22.5276C28.7905 22.0626 28.7905 21.2992 28.3257 20.8342Z" fill="white" stroke="white" stroke-width="0.958333"/>
</svg>
