<svg width="16" height="16" viewBox="0 0 16 16" fill="none" xmlns="http://www.w3.org/2000/svg">
<path d="M8.66655 7.83329C8.53988 7.83329 8.41321 7.78662 8.31321 7.68662C8.11988 7.49329 8.11988 7.17329 8.31321 6.97995L13.7799 1.51329C13.9732 1.31995 14.2932 1.31995 14.4865 1.51329C14.6799 1.70662 14.6799 2.02662 14.4865 2.21995L9.01988 7.68662C8.91988 7.78662 8.79321 7.83329 8.66655 7.83329Z" fill="white"/>
<mask id="path-2-inside-1_414_8498" fill="white">
<path d="M14.6666 5.03337C14.3932 5.03337 14.1666 4.80671 14.1666 4.53337V1.83337H11.4666C11.1932 1.83337 10.9666 1.60671 10.9666 1.33337C10.9666 1.06004 11.1932 0.833374 11.4666 0.833374H14.6666C14.9399 0.833374 15.1666 1.06004 15.1666 1.33337V4.53337C15.1666 4.80671 14.9399 5.03337 14.6666 5.03337Z"/>
</mask>
<path d="M14.6666 5.03337C14.3932 5.03337 14.1666 4.80671 14.1666 4.53337V1.83337H11.4666C11.1932 1.83337 10.9666 1.60671 10.9666 1.33337C10.9666 1.06004 11.1932 0.833374 11.4666 0.833374H14.6666C14.9399 0.833374 15.1666 1.06004 15.1666 1.33337V4.53337C15.1666 4.80671 14.9399 5.03337 14.6666 5.03337Z" fill="white"/>
<path d="M14.1666 1.83337H15.1666V0.833374H14.1666V1.83337ZM14.6666 5.03337V4.03337C14.9455 4.03337 15.1666 4.25442 15.1666 4.53337H14.1666H13.1666C13.1666 5.35899 13.8409 6.03337 14.6666 6.03337V5.03337ZM14.1666 4.53337H15.1666V1.83337H14.1666H13.1666V4.53337H14.1666ZM14.1666 1.83337V0.833374H11.4666V1.83337V2.83337H14.1666V1.83337ZM11.4666 1.83337V0.833374C11.7455 0.833374 11.9666 1.05442 11.9666 1.33337H10.9666H9.96655C9.96655 2.15899 10.6409 2.83337 11.4666 2.83337V1.83337ZM10.9666 1.33337H11.9666C11.9666 1.61233 11.7455 1.83337 11.4666 1.83337V0.833374V-0.166626C10.6409 -0.166626 9.96655 0.507756 9.96655 1.33337H10.9666ZM11.4666 0.833374V1.83337H14.6666V0.833374V-0.166626H11.4666V0.833374ZM14.6666 0.833374V1.83337C14.3876 1.83337 14.1666 1.61233 14.1666 1.33337H15.1666H16.1666C16.1666 0.507756 15.4922 -0.166626 14.6666 -0.166626V0.833374ZM15.1666 1.33337H14.1666V4.53337H15.1666H16.1666V1.33337H15.1666ZM15.1666 4.53337H14.1666C14.1666 4.25442 14.3876 4.03337 14.6666 4.03337V5.03337V6.03337C15.4922 6.03337 16.1666 5.35899 16.1666 4.53337H15.1666Z" fill="white" mask="url(#path-2-inside-1_414_8498)"/>
<path d="M6.00024 14.6664C5.83991 14.6664 5.68451 14.6619 5.53442 14.6556C5.68593 14.6615 5.84138 14.6664 6.00024 14.6664ZM14.6663 10.0004C14.6663 10.1605 14.6618 10.3153 14.6555 10.4652C14.6614 10.3139 14.6663 10.159 14.6663 10.0004ZM1.33325 6.00037C1.33325 5.83447 1.33729 5.67385 1.34399 5.51892C1.33771 5.67537 1.33325 5.83605 1.33325 6.00037ZM10.4651 14.6556C10.3152 14.6619 10.1603 14.6664 10.0002 14.6664C10.1589 14.6664 10.3138 14.6615 10.4651 14.6556Z" fill="white" stroke="white"/>
</svg>
