<svg width="27" height="27" viewBox="0 0 27 27" fill="none" xmlns="http://www.w3.org/2000/svg">
<g clip-path="url(#clip0_532_10734)">
<path d="M23.87 11.3011H22.9974V11.2561H13.2474V15.5895H19.3699C18.4766 18.112 16.0765 19.9228 13.2474 19.9228C9.65777 19.9228 6.7474 17.0124 6.7474 13.4228C6.7474 9.83319 9.65777 6.92281 13.2474 6.92281C14.9044 6.92281 16.4118 7.54789 17.5596 8.56894L20.6238 5.50473C18.689 3.70152 16.1009 2.58948 13.2474 2.58948C7.26469 2.58948 2.41406 7.4401 2.41406 13.4228C2.41406 19.4055 7.26469 24.2561 13.2474 24.2561C19.2301 24.2561 24.0807 19.4055 24.0807 13.4228C24.0807 12.6964 24.006 11.9874 23.87 11.3011Z" fill="white"/>
</g>
<defs>
<clipPath id="clip0_532_10734">
<rect width="26" height="26" fill="white" transform="translate(0.75 0.142212)"/>
</clipPath>
</defs>
</svg>
