<svg width="18" height="18" viewBox="0 0 18 18" fill="none" xmlns="http://www.w3.org/2000/svg">
<path d="M6.015 3.46497H5.235C4.0425 3.46497 3.5625 3.91497 3.5625 5.05497V13.965H7.6875V5.05497C7.68 3.91497 7.2 3.46497 6.015 3.46497Z" fill="white"/>
<path d="M12.39 7.21497H11.61C10.4175 7.21497 9.9375 7.67247 9.9375 8.80497V13.965H14.0625V8.80497C14.0625 7.67247 13.575 7.21497 12.39 7.21497Z" fill="white"/>
<path d="M2.0625 13.41H15.9375C16.245 13.41 16.5 13.665 16.5 13.9725C16.5 14.28 16.245 14.535 15.9375 14.535H2.0625C1.755 14.535 1.5 14.28 1.5 13.965C1.5 13.65 1.755 13.41 2.0625 13.41Z" fill="white"/>
</svg>
