<svg width="18" height="18" viewBox="0 0 18 18" fill="none" xmlns="http://www.w3.org/2000/svg">
<path d="M10.7628 1.5H7.23781C6.45781 1.5 5.82031 2.13 5.82031 2.91V3.615C5.82031 4.395 6.45031 5.025 7.23031 5.025H10.7628C11.5428 5.025 12.1728 4.395 12.1728 3.615V2.91C12.1803 2.13 11.5428 1.5 10.7628 1.5Z" fill="white"/>
<path d="M12.9303 3.61498C12.9303 4.80748 11.9553 5.78248 10.7628 5.78248H7.23777C6.04527 5.78248 5.07027 4.80748 5.07027 3.61498C5.07027 3.19498 4.62027 2.93248 4.24527 3.12748C3.18777 3.68998 2.46777 4.80748 2.46777 6.08998V13.1475C2.46777 14.9925 3.97527 16.5 5.82027 16.5H12.1803C14.0253 16.5 15.5328 14.9925 15.5328 13.1475V6.08998C15.5328 4.80748 14.8128 3.68998 13.7553 3.12748C13.3803 2.93248 12.9303 3.19498 12.9303 3.61498ZM11.5053 9.54748L8.50527 12.5475C8.39277 12.66 8.25027 12.7125 8.10777 12.7125C7.96527 12.7125 7.82277 12.66 7.71027 12.5475L6.58527 11.4225C6.36777 11.205 6.36777 10.845 6.58527 10.6275C6.80277 10.41 7.16277 10.41 7.38027 10.6275L8.10777 11.355L10.7103 8.75248C10.9278 8.53498 11.2878 8.53498 11.5053 8.75248C11.7228 8.96998 11.7228 9.32998 11.5053 9.54748Z" fill="white"/>
</svg>
