<svg width="28" height="28" viewBox="0 0 28 28" fill="none" xmlns="http://www.w3.org/2000/svg">
<path d="M14 17.5C15.933 17.5 17.5 15.933 17.5 14C17.5 12.067 15.933 10.5 14 10.5C12.067 10.5 10.5 12.067 10.5 14C10.5 15.933 12.067 17.5 14 17.5Z" stroke="#252525" stroke-opacity="0.8" stroke-width="2" stroke-miterlimit="10" stroke-linecap="round" stroke-linejoin="round"/>
<path d="M2.33325 15.0268V12.9734C2.33325 11.7601 3.32492 10.7568 4.54992 10.7568C6.66159 10.7568 7.52492 9.26342 6.46325 7.43176C5.85659 6.38176 6.21825 5.01676 7.27992 4.41009L9.29825 3.25509C10.2199 2.70676 11.4099 3.03342 11.9583 3.95509L12.0866 4.17676C13.1366 6.00842 14.8633 6.00842 15.9249 4.17676L16.0533 3.95509C16.6016 3.03342 17.7916 2.70676 18.7133 3.25509L20.7316 4.41009C21.7933 5.01676 22.1549 6.38176 21.5483 7.43176C20.4866 9.26342 21.3499 10.7568 23.4616 10.7568C24.6749 10.7568 25.6783 11.7484 25.6783 12.9734V15.0268C25.6783 16.2401 24.6866 17.2434 23.4616 17.2434C21.3499 17.2434 20.4866 18.7368 21.5483 20.5684C22.1549 21.6301 21.7933 22.9834 20.7316 23.5901L18.7133 24.7451C17.7916 25.2934 16.6016 24.9668 16.0533 24.0451L15.9249 23.8234C14.8749 21.9918 13.1483 21.9918 12.0866 23.8234L11.9583 24.0451C11.4099 24.9668 10.2199 25.2934 9.29825 24.7451L7.27992 23.5901C6.21825 22.9834 5.85659 21.6184 6.46325 20.5684C7.52492 18.7368 6.66159 17.2434 4.54992 17.2434C3.32492 17.2434 2.33325 16.2401 2.33325 15.0268Z" stroke="#252525" stroke-opacity="0.8" stroke-width="2" stroke-miterlimit="10" stroke-linecap="round" stroke-linejoin="round"/>
</svg>
