<svg width="70" height="71" viewBox="0 0 70 71" fill="none" xmlns="http://www.w3.org/2000/svg">
<path d="M62.8906 35.4995C63.8173 34.4204 64.4667 33.1314 64.7824 31.7445C65.0982 30.3576 65.0708 28.9146 64.7026 27.5407C64.3344 26.1668 63.6366 24.9035 62.6697 23.8603C61.7027 22.8171 60.4958 22.0256 59.1537 21.5545C59.4167 20.1565 59.3346 18.7156 58.9146 17.3565C58.4945 15.9975 57.7492 14.7615 56.7433 13.7557C55.7375 12.75 54.5013 12.0049 53.1423 11.585C51.7832 11.1651 50.3422 11.0832 48.9443 11.3463C48.4735 10.0039 47.6822 8.79674 46.639 7.82955C45.5958 6.86236 44.3323 6.16442 42.9582 5.79632C41.5841 5.42823 40.1409 5.4011 38.7539 5.7173C37.3669 6.0335 36.0781 6.68347 34.9993 7.61078C33.9202 6.68411 32.6313 6.03473 31.2444 5.71896C29.8575 5.4032 28.4145 5.43059 27.0405 5.79876C25.6666 6.16693 24.4033 6.86477 23.3601 7.83172C22.3169 8.79868 21.5254 10.0056 21.0543 11.3476C19.6565 11.0849 18.2156 11.1672 16.8568 11.5874C15.4979 12.0075 14.2621 12.7528 13.2565 13.7587C12.2509 14.7645 11.5059 16.0006 11.0861 17.3595C10.6663 18.7185 10.5844 20.1593 10.8475 21.5571C9.50537 22.0282 8.29849 22.8197 7.33154 23.8629C6.36458 24.9061 5.66675 26.1694 5.29857 27.5433C4.9304 28.9172 4.90301 30.3602 5.21877 31.7471C5.53453 33.134 6.18393 34.423 7.1106 35.5021C6.18365 36.5812 5.53405 37.8702 5.2182 39.2572C4.90234 40.6443 4.92976 42.0874 5.2981 43.4615C5.66643 44.8355 6.36454 46.0989 7.33182 47.142C8.29911 48.1851 9.50636 48.9763 10.8488 49.4471C10.5855 50.8449 10.6673 52.2858 11.0871 53.6449C11.507 55.0039 12.2522 56.2399 13.258 57.2456C14.2639 58.2513 15.5 58.9964 16.8591 59.4161C18.2182 59.8357 19.6591 59.9174 21.0569 59.6539C21.5281 60.996 22.3195 62.2029 23.3627 63.1698C24.4059 64.1368 25.6692 64.8346 27.0431 65.2028C28.4171 65.571 29.8601 65.5984 31.247 65.2826C32.6339 64.9668 33.9228 64.3174 35.0019 63.3908C36.081 64.3177 37.37 64.9673 38.757 65.2832C40.1441 65.599 41.5873 65.5716 42.9613 65.2033C44.3353 64.8349 45.5987 64.1368 46.6418 63.1695C47.6849 62.2023 48.4762 60.995 48.9469 59.6526C50.3448 59.9158 51.7857 59.834 53.1448 59.4141C54.5038 58.9942 55.7399 58.2491 56.7457 57.2433C57.7515 56.2375 58.4967 55.0014 58.9165 53.6424C59.3364 52.2833 59.4183 50.8423 59.155 49.4445C60.4972 48.9734 61.7042 48.182 62.6712 47.1388C63.6382 46.0956 64.336 44.8321 64.7041 43.4581C65.0722 42.0841 65.0994 40.641 64.7833 39.2541C64.4673 37.8672 63.8176 36.5784 62.8906 35.4995Z" fill="#B2642A"/>
<path d="M38.1982 3.27991C39.9819 2.87326 41.8383 2.90809 43.6055 3.38147C45.3725 3.85488 46.9974 4.75295 48.3389 5.9967C49.1881 6.78414 49.9074 7.69529 50.4746 8.69592C51.6247 8.68702 52.7734 8.85415 53.8799 9.19592C55.6275 9.73583 57.2172 10.6946 58.5107 11.9879C59.8043 13.2813 60.7626 14.8711 61.3027 16.6188C61.6447 17.7253 61.8125 18.8739 61.8037 20.024C62.8044 20.5915 63.7155 21.3113 64.5029 22.1608L64.7324 22.4156C65.8571 23.7058 66.6733 25.2371 67.1172 26.8932C67.5906 28.66 67.6258 30.5159 67.2197 32.2994C66.9626 33.4287 66.5329 34.5069 65.9502 35.4987C66.5334 36.4905 66.9633 37.5693 67.2207 38.6989C67.6271 40.4824 67.5925 42.3382 67.1191 44.1051C66.6458 45.8721 65.7484 47.497 64.5049 48.8385C63.7174 49.6881 62.8055 50.4068 61.8047 50.9742C61.8137 52.1246 61.6466 53.2738 61.3047 54.3805C60.7647 56.1281 59.807 57.718 58.5137 59.0114C57.2203 60.3047 55.6305 61.2624 53.8828 61.8024C52.7761 62.1443 51.627 62.3114 50.4766 62.3024C49.9093 63.3031 49.1911 64.215 48.3418 65.0026C47.0004 66.2465 45.3754 67.1441 43.6084 67.6178C41.8415 68.0914 39.9858 68.1265 38.2021 67.7203C37.0724 67.4631 35.993 67.034 35.001 66.4508C34.0093 67.0334 32.9309 67.4633 31.8018 67.7203C30.0185 68.1263 28.1631 68.0911 26.3965 67.6178C24.6297 67.1444 23.0045 66.247 21.6631 65.0035C20.8136 64.2161 20.0938 63.3049 19.5264 62.3043C18.3764 62.3134 17.2275 62.146 16.1211 61.8043C14.3735 61.2646 12.7837 60.3066 11.4902 59.0133C10.1968 57.7199 9.23817 56.1301 8.69824 54.3824C8.35646 53.276 8.18926 52.1273 8.19824 50.9772C7.19762 50.41 6.2865 49.6906 5.49902 48.8414C4.25522 47.5001 3.35747 45.8759 2.88379 44.109C2.41011 42.342 2.37409 40.4855 2.78027 38.7018C3.03753 37.5722 3.4677 36.4935 4.05078 35.5016C3.46808 34.5099 3.03837 33.4316 2.78125 32.3024C2.37519 30.5189 2.41034 28.6629 2.88379 26.8961C3.35723 25.1294 4.25471 23.5051 5.49805 22.1637C6.28524 21.3145 7.19597 20.5944 8.19629 20.027C8.18739 18.8769 8.35548 17.7282 8.69727 16.6217C9.23711 14.8742 10.1951 13.2843 11.4883 11.9908C12.7814 10.6974 14.3708 9.73915 16.1182 9.19885C17.2245 8.85676 18.3733 8.6883 19.5234 8.6969C20.0908 7.69649 20.8109 6.78593 21.6602 5.99866C23.0016 4.7552 24.6268 3.85785 26.3936 3.3844C28.1603 2.91095 30.0163 2.87483 31.7998 3.28088C32.9288 3.53797 34.0065 3.96882 34.998 4.55139C35.9899 3.96793 37.0685 3.53745 38.1982 3.27991Z" stroke="#F4D6C0" stroke-opacity="0.4" stroke-width="5"/>
<path d="M29.6164 46.952L21.2793 38.6201C20.9629 38.3032 20.7852 37.8737 20.7852 37.4258C20.7852 36.978 20.9629 36.5485 21.2793 36.2316L22.2922 35.2174C22.6091 34.901 23.0386 34.7233 23.4864 34.7233C23.9343 34.7233 24.3638 34.901 24.6807 35.2174L30.7411 41.2739L45.0137 26.1067C45.3209 25.7808 45.7447 25.5901 46.1923 25.5765C46.6399 25.5628 47.0746 25.7273 47.401 26.0339L48.4412 27.0155C48.7674 27.3227 48.9583 27.7468 48.972 28.1947C48.9856 28.6426 48.8209 29.0776 48.514 29.4041L32.0452 46.9143C31.8902 47.0796 31.7034 47.212 31.4962 47.3036C31.2889 47.3953 31.0654 47.4443 30.8388 47.4478C30.6122 47.4513 30.3872 47.4093 30.1772 47.3241C29.9672 47.2389 29.7765 47.1124 29.6164 46.952Z" fill="white"/>
</svg>
