<svg width="24" height="24" viewBox="0 0 24 24" fill="none" xmlns="http://www.w3.org/2000/svg">
<path d="M17.75 18.5742H17.0217C16.255 18.5742 15.5267 18.8712 14.99 19.4079L13.3512 21.0275C12.6037 21.7654 11.3867 21.7654 10.6392 21.0275L9.00041 19.4079C8.46375 18.8712 7.72583 18.5742 6.96875 18.5742H6.25C4.65917 18.5742 3.375 17.2996 3.375 15.7279V5.27249C3.375 3.70082 4.65917 2.42627 6.25 2.42627H17.75C19.3408 2.42627 20.625 3.70082 20.625 5.27249V15.7279C20.625 17.29 19.3408 18.5742 17.75 18.5742Z" stroke="#51111D" stroke-width="1.4375" stroke-miterlimit="10" stroke-linecap="round" stroke-linejoin="round"/>
<path d="M12 10.0835C13.2332 10.0835 14.233 9.08376 14.233 7.85055C14.233 6.61734 13.2332 5.61768 12 5.61768C10.7668 5.61768 9.76709 6.61734 9.76709 7.85055C9.76709 9.08376 10.7668 10.0835 12 10.0835Z" stroke="#51111D" stroke-width="1.4375" stroke-linecap="round" stroke-linejoin="round"/>
<path d="M15.8332 15.5075C15.8332 13.7825 14.1178 12.3834 11.9998 12.3834C9.88192 12.3834 8.1665 13.7825 8.1665 15.5075" stroke="#51111D" stroke-width="1.4375" stroke-linecap="round" stroke-linejoin="round"/>
</svg>
