<svg width="24" height="24" viewBox="0 0 24 24" fill="none" xmlns="http://www.w3.org/2000/svg">
<path d="M11.9997 12.0001C14.646 12.0001 16.7913 9.85478 16.7913 7.20841C16.7913 4.56205 14.646 2.41675 11.9997 2.41675C9.35331 2.41675 7.20801 4.56205 7.20801 7.20841C7.20801 9.85478 9.35331 12.0001 11.9997 12.0001Z" stroke="#51111D" stroke-width="1.4375" stroke-linecap="round" stroke-linejoin="round"/>
<path d="M3.76758 21.5833C3.76758 17.8746 7.45716 14.875 11.9997 14.875C12.9197 14.875 13.8109 14.9996 14.6447 15.2296" stroke="#51111D" stroke-width="1.4375" stroke-linecap="round" stroke-linejoin="round"/>
<path d="M21.5837 17.75C21.5837 18.4687 21.3824 19.1491 21.0278 19.7241C20.8266 20.0691 20.5678 20.3758 20.2707 20.625C19.5999 21.2287 18.7182 21.5833 17.7503 21.5833C16.3512 21.5833 15.1341 20.8358 14.4728 19.7241C14.1182 19.1491 13.917 18.4687 13.917 17.75C13.917 16.5425 14.4728 15.4595 15.3545 14.76C16.0157 14.2329 16.8495 13.9166 17.7503 13.9166C19.8682 13.9166 21.5837 15.632 21.5837 17.75Z" stroke="#51111D" stroke-width="1.4375" stroke-miterlimit="10" stroke-linecap="round" stroke-linejoin="round"/>
<path d="M16.2559 17.7499L17.2046 18.6987L19.2459 16.8108" stroke="#51111D" stroke-width="1.4375" stroke-linecap="round" stroke-linejoin="round"/>
</svg>
