<svg width="18" height="18" viewBox="0 0 18 18" fill="none" xmlns="http://www.w3.org/2000/svg">
<path d="M13.1468 5.8275C13.0943 5.82 13.0418 5.82 12.9893 5.8275C11.8268 5.79 10.9043 4.8375 10.9043 3.6675C10.9043 2.475 11.8718 1.5 13.0718 1.5C14.2643 1.5 15.2393 2.4675 15.2393 3.6675C15.2318 4.8375 14.3093 5.79 13.1468 5.8275Z" fill="white"/>
<path d="M15.5917 11.0251C14.7517 11.5876 13.5742 11.7976 12.4867 11.6551C12.7717 11.0401 12.9217 10.3576 12.9292 9.63756C12.9292 8.88756 12.7642 8.17506 12.4492 7.55256C13.5592 7.40256 14.7367 7.61256 15.5842 8.17506C16.7692 8.95506 16.7692 10.2376 15.5917 11.0251Z" fill="white"/>
<path d="M4.82914 5.8275C4.88164 5.82 4.93414 5.82 4.98664 5.8275C6.14914 5.79 7.07164 4.8375 7.07164 3.6675C7.07164 2.4675 6.10414 1.5 4.90414 1.5C3.71164 1.5 2.74414 2.4675 2.74414 3.6675C2.74414 4.8375 3.66664 5.79 4.82914 5.8275Z" fill="white"/>
<path d="M4.91234 9.63746C4.91234 10.365 5.06984 11.055 5.35484 11.6775C4.29734 11.79 3.19484 11.565 2.38484 11.0325C1.19984 10.245 1.19984 8.96246 2.38484 8.17496C3.18734 7.63496 4.31984 7.41746 5.38484 7.53746C5.07734 8.16746 4.91234 8.87996 4.91234 9.63746Z" fill="white"/>
<path d="M9.08961 11.9025C9.02961 11.895 8.96211 11.895 8.89461 11.9025C7.51461 11.8575 6.41211 10.725 6.41211 9.33C6.41961 7.905 7.56711 6.75 8.99961 6.75C10.4246 6.75 11.5796 7.905 11.5796 9.33C11.5721 10.725 10.4771 11.8575 9.08961 11.9025Z" fill="white"/>
<path d="M6.65211 13.455C5.51961 14.2125 5.51961 15.4575 6.65211 16.2075C7.94211 17.07 10.0571 17.07 11.3471 16.2075C12.4796 15.45 12.4796 14.205 11.3471 13.455C10.0646 12.5925 7.94961 12.5925 6.65211 13.455Z" fill="white"/>
</svg>
